<svg width="18" height="15" viewBox="0 0 18 15" fill="none" xmlns="http://www.w3.org/2000/svg">
<path d="M17.0991 0.506142C17.0224 0.497953 16.9451 0.497953 16.8684 0.506142H1.11844C1.01749 0.507754 0.917218 0.523444 0.820312 0.552789L8.94844 8.94332L17.0991 0.506142Z" fill="#763A26"/>
<path d="M17.9325 1.31641L9.7425 9.77108C9.53172 9.98828 9.24658 10.1102 8.94938 10.1102C8.65217 10.1102 8.36703 9.98828 8.15625 9.77108L0.039375 1.38055C0.0144222 1.47561 0.00119176 1.57357 0 1.67209V13.3337C0 13.643 0.118526 13.9396 0.329505 14.1583C0.540483 14.377 0.826631 14.4999 1.125 14.4999H16.875C17.1734 14.4999 17.4595 14.377 17.6705 14.1583C17.8815 13.9396 18 13.643 18 13.3337V1.67209C17.9955 1.5506 17.9727 1.43059 17.9325 1.31641ZM1.89563 13.3337H1.11375V12.4999L5.20312 8.29589L5.99625 9.11803L1.89563 13.3337ZM16.8638 13.3337H16.0763L11.9756 9.11803L12.7687 8.29589L16.8581 12.4999L16.8638 13.3337Z" fill="#763A26"/>
</svg>
