<svg width="41" height="39" viewBox="0 0 41 39" fill="none" xmlns="http://www.w3.org/2000/svg">
<rect x="0.5" y="0.5" width="40" height="38" rx="19" fill="#763A26"/>
<rect x="0.5" y="0.5" width="40" height="38" rx="19" stroke="#763A26"/>
<path d="M13.2802 8.53996L21 16.2594L28.6798 8.57996C28.8494 8.39941 29.0538 8.25497 29.2806 8.15531C29.5074 8.05566 29.752 8.00283 29.9997 8C30.5302 8 31.0388 8.2107 31.4139 8.58574C31.789 8.96079 31.9997 9.46946 31.9997 9.99986C32.0043 10.245 31.9588 10.4886 31.866 10.7156C31.7731 10.9425 31.6349 11.1481 31.4597 11.3198L23.6799 18.9992L31.4597 26.7787C31.7893 27.1011 31.9826 27.5378 31.9997 27.9986C31.9997 28.529 31.789 29.0376 31.4139 29.4127C31.0388 29.7877 30.5302 29.9984 29.9997 29.9984C29.7449 30.009 29.4906 29.9665 29.253 29.8735C29.0154 29.7805 28.7998 29.6392 28.6198 29.4585L21 21.739L13.3002 29.4385C13.1312 29.613 12.9294 29.7523 12.7062 29.8484C12.4831 29.9445 12.2432 29.9955 12.0003 29.9984C11.4698 29.9984 10.9612 29.7877 10.5861 29.4127C10.211 29.0376 10.0003 28.529 10.0003 27.9986C9.99566 27.7534 10.0412 27.5098 10.134 27.2829C10.2269 27.0559 10.3651 26.8503 10.5403 26.6787L18.3201 18.9992L10.5403 11.2198C10.2107 10.8973 10.0174 10.4606 10.0003 9.99986C10.0003 9.46946 10.211 8.96079 10.5861 8.58574C10.9612 8.2107 11.4698 8 12.0003 8C12.4803 8.006 12.9402 8.19999 13.2802 8.53996Z" fill="#FDF6F3"/>
</svg>
