<svg width="41" height="39" viewBox="0 0 41 39" fill="none" xmlns="http://www.w3.org/2000/svg">
<rect width="41" height="39" rx="19.5" fill="#FDF6F3"/>
<path d="M12.2802 9.53996L20 17.2594L27.6798 9.57996C27.8494 9.39941 28.0538 9.25497 28.2806 9.15531C28.5074 9.05566 28.752 9.00283 28.9997 9C29.5302 9 30.0388 9.2107 30.4139 9.58574C30.789 9.96079 30.9997 10.4695 30.9997 10.9999C31.0043 11.245 30.9588 11.4886 30.866 11.7156C30.7731 11.9425 30.6349 12.1481 30.4597 12.3198L22.6799 19.9992L30.4597 27.7787C30.7893 28.1011 30.9826 28.5378 30.9997 28.9986C30.9997 29.529 30.789 30.0376 30.4139 30.4127C30.0388 30.7877 29.5302 30.9984 28.9997 30.9984C28.7449 31.009 28.4906 30.9665 28.253 30.8735C28.0154 30.7805 27.7998 30.6392 27.6198 30.4585L20 22.739L12.3002 30.4385C12.1312 30.613 11.9294 30.7523 11.7062 30.8484C11.4831 30.9445 11.2432 30.9955 11.0003 30.9984C10.4698 30.9984 9.96116 30.7877 9.58609 30.4127C9.21103 30.0376 9.00033 29.529 9.00033 28.9986C8.99566 28.7534 9.04116 28.5098 9.13401 28.2829C9.22687 28.0559 9.36513 27.8503 9.54031 27.6787L17.3201 19.9992L9.54031 12.2198C9.21069 11.8973 9.0174 11.4606 9.00033 10.9999C9.00033 10.4695 9.21103 9.96079 9.58609 9.58574C9.96116 9.2107 10.4698 9 11.0003 9C11.4803 9.006 11.9402 9.19999 12.2802 9.53996Z" fill="#763A26"/>
</svg>
