<svg width="23" height="23" viewBox="0 0 23 23" fill="none" xmlns="http://www.w3.org/2000/svg">
<path d="M20.6462 10.5849C20.9375 10.9934 21.0832 11.1977 21.0832 11.5001C21.0832 11.8024 20.9375 12.0068 20.6462 12.4153C19.337 14.2511 15.9937 18.2084 11.4998 18.2084C7.006 18.2084 3.66268 14.2511 2.35354 12.4153C2.06218 12.0068 1.9165 11.8024 1.9165 11.5001C1.9165 11.1977 2.06218 10.9934 2.35354 10.5849C3.66268 8.74913 7.006 4.79175 11.4998 4.79175C15.9937 4.79175 19.337 8.74913 20.6462 10.5849Z" stroke="#8E4026" stroke-width="1.5"/>
<path d="M14.375 11.5C14.375 9.91214 13.0879 8.625 11.5 8.625C9.91214 8.625 8.625 9.91214 8.625 11.5C8.625 13.0879 9.91214 14.375 11.5 14.375C13.0879 14.375 14.375 13.0879 14.375 11.5Z" stroke="#8E4026" stroke-width="1.5"/>
</svg>
