<svg width="15" height="15" viewBox="0 0 15 15" fill="none" xmlns="http://www.w3.org/2000/svg">
<path d="M11.5569 2.88432L11.5647 2.88456C11.8683 2.894 12.1639 3.01338 12.3841 3.22884C12.6035 3.44355 12.7305 3.73797 12.7228 4.05056V4.80064C12.7246 4.95697 12.6916 5.11081 12.6271 5.25225C12.5643 5.39018 12.4735 5.51218 12.3625 5.6125C12.2523 5.71919 12.1214 5.80113 11.9796 5.85524C11.8361 5.90999 11.6831 5.9357 11.5302 5.93165H10.989C10.8755 5.93165 10.8036 5.93246 10.7431 5.94065C10.7126 5.94477 10.6956 5.94962 10.6874 5.95251C10.6714 5.97953 10.6362 6.06795 10.6362 6.29625V6.76403H10.8873H10.888V7.26403C10.9779 7.26377 11.067 7.27984 11.1501 7.31129C11.2332 7.34275 11.3087 7.38897 11.3723 7.4473C11.4359 7.50564 11.4863 7.57493 11.5205 7.6512C11.5548 7.72747 11.5723 7.8092 11.5721 7.8917V8.68273C11.5721 8.8492 11.5 9.00885 11.3717 9.12656C11.2434 9.24427 11.0694 9.3104 10.888 9.3104L11.5569 2.88432ZM11.5569 2.88432H11.5492H10.2685C9.82916 2.87025 9.3908 2.94316 8.98279 3.09915C8.57193 3.25622 8.19984 3.49451 7.89367 3.8001C7.58737 4.10582 7.35419 4.47187 7.21336 4.87425C7.07632 5.26581 7.03066 5.68067 7.08004 6.09085V6.76307H6.86462C6.71469 6.76145 6.56508 6.78692 6.42399 6.83882C6.28163 6.8912 6.14937 6.96999 6.03589 7.07255C5.92231 7.1752 5.82953 7.29993 5.76526 7.44079C5.70094 7.58179 5.6671 7.73488 5.66711 7.89074C5.66711 7.89076 5.66711 7.89078 5.66711 7.8908L5.66711 8.68369L5.66712 8.68444C5.66735 8.84033 5.70144 8.99339 5.76599 9.13429C5.83048 9.27505 5.92346 9.39963 6.03718 9.50211C6.15082 9.6045 6.28319 9.68309 6.42562 9.73526C6.56667 9.78692 6.71618 9.81218 6.86599 9.8104H7.08004V13.6875H1.12139C0.943364 13.6875 0.78037 13.6222 0.666484 13.5177C0.55404 13.4145 0.5 13.2843 0.5 13.1586V1.84142C0.5 1.71571 0.55404 1.58545 0.666484 1.48228C0.78037 1.37779 0.943364 1.3125 1.12139 1.3125H13.4556C13.6336 1.3125 13.7966 1.37779 13.9105 1.48228C14.023 1.58545 14.077 1.71571 14.077 1.84142V13.1586C14.077 13.2843 14.023 13.4145 13.9105 13.5177C13.7966 13.6222 13.6336 13.6875 13.4556 13.6875H10.5925V9.8104M11.5569 2.88432L10.5925 9.8104M10.5925 9.8104H10.888C11.1888 9.8104 11.485 9.70115 11.7097 9.49498C11.9359 9.28748 12.0721 8.99637 12.0721 8.68273V7.89237L10.5925 9.8104ZM10.6952 5.94255C10.6954 5.94287 10.6938 5.94526 10.6898 5.94878C10.693 5.94399 10.695 5.94223 10.6952 5.94255Z" stroke="#763A26"/>
</svg>
