<svg width="15" height="14" viewBox="0 0 15 14" fill="none" xmlns="http://www.w3.org/2000/svg">
<path d="M0 12.4711V1.15392C0 0.881033 0.118146 0.619323 0.328447 0.426364C0.538748 0.233404 0.823978 0.125 1.12139 0.125L13.4556 0.125C13.753 0.125 14.0383 0.233404 14.2486 0.426364C14.4589 0.619323 14.577 0.881033 14.577 1.15392V12.4711C14.577 12.744 14.4589 13.0057 14.2486 13.1986C14.0383 13.3916 13.753 13.5 13.4556 13.5H10.0925V8.6229H10.888C11.0694 8.6229 11.2434 8.55677 11.3717 8.43906C11.5 8.32135 11.5721 8.1617 11.5721 7.99523V7.2042C11.5723 7.1217 11.5548 7.03997 11.5205 6.9637C11.4863 6.88743 11.4359 6.81814 11.3723 6.7598C11.3087 6.70147 11.2332 6.65525 11.1501 6.62379C11.067 6.59234 10.9779 6.57627 10.888 6.57653H10.1362V5.60875C10.1362 4.74415 10.5631 4.74415 10.989 4.74415H11.5377C11.628 4.74729 11.7179 4.73244 11.8013 4.70061C11.8847 4.66877 11.9596 4.62072 12.0208 4.55977C12.0859 4.50257 12.1374 4.43369 12.1721 4.35742C12.2069 4.28115 12.2241 4.19914 12.2228 4.11648V3.35602C12.2284 3.18672 12.1607 3.02227 12.0344 2.89872C11.9081 2.77516 11.7337 2.70256 11.5492 2.69682H10.2601C9.88384 2.68374 9.50893 2.74579 9.16134 2.87868C8.81374 3.01157 8.50173 3.21213 8.24689 3.46649C7.99204 3.72085 7.80043 4.02296 7.68529 4.35193C7.57016 4.68089 7.53425 5.02887 7.58004 5.37182V6.57557H6.86161C6.7709 6.5743 6.68082 6.5896 6.59662 6.62058C6.51242 6.65156 6.43577 6.69759 6.37114 6.756C6.30651 6.81441 6.25519 6.88403 6.22016 6.96081C6.18514 7.0376 6.1671 7.12 6.16711 7.20324V7.99619C6.16724 8.07943 6.18541 8.16181 6.22056 8.23854C6.25572 8.31528 6.30715 8.38483 6.37188 8.44315C6.43661 8.50148 6.51333 8.5474 6.59758 8.57826C6.68184 8.60912 6.77194 8.6243 6.86265 8.6229H7.58004V13.5H1.12139C0.823978 13.5 0.538748 13.3916 0.328447 13.1986C0.118146 13.0057 0 12.744 0 12.4711Z" fill="#763A26"/>
</svg>
