<svg width="16" height="14" viewBox="0 0 16 14" fill="none" xmlns="http://www.w3.org/2000/svg">
<path d="M15.5438 2.03571C15.5438 0.981836 14.61 0.125 13.4614 0.125H3.04923C1.90064 0.125 0.966797 0.981836 0.966797 2.03571V11.5893C0.966797 12.6432 1.90064 13.5 3.04923 13.5H13.4614C14.61 13.5 15.5438 12.6432 15.5438 11.5893V2.03571ZM9.61539 11.3415C9.61539 11.2878 9.61539 11.1624 9.61864 10.9952C9.62189 10.6548 9.62189 10.1354 9.62189 9.69051C9.62189 9.22478 9.4527 8.92921 9.25422 8.77397C10.4581 8.65156 11.7271 8.4993 11.7271 6.59157C11.7271 6.04821 11.5156 5.77653 11.1707 5.42723C11.226 5.29886 11.4115 4.77042 11.1154 4.08376C10.6631 3.95539 9.6284 4.61816 9.6284 4.61816C9.1989 4.5077 8.73361 4.45098 8.27482 4.45098C7.81604 4.45098 7.35074 4.5077 6.92124 4.61816C6.92124 4.61816 5.88654 3.95539 5.43426 4.08376C5.13816 4.76744 5.32038 5.29587 5.37894 5.42723C5.03404 5.77653 4.87135 6.04821 4.87135 6.59157C4.87135 8.49035 6.08502 8.65156 7.28892 8.77397C7.13274 8.90234 6.99283 9.12327 6.94402 9.43973C6.63491 9.56811 5.84424 9.78903 5.37244 9.02475C5.07634 8.55304 4.54272 8.51423 4.54272 8.51423C4.0156 8.50826 4.50693 8.81875 4.50693 8.81875C4.85834 8.96803 5.10563 9.54124 5.10563 9.54124C5.42124 10.4279 6.93101 10.1294 6.93101 10.1294C6.93101 10.3981 6.93426 10.7772 6.93426 11.0429C6.93426 11.1862 6.93751 11.2997 6.93751 11.3415C6.93751 11.4699 6.8399 11.6251 6.56333 11.5803C4.41582 10.9205 2.91257 9.04565 2.91257 6.8543C2.91257 4.11362 5.19673 2.03273 8.18372 2.03273C11.1707 2.03273 13.5915 4.11362 13.5915 6.8543C13.5948 9.04565 12.1371 10.9235 9.98957 11.5803C9.71625 11.6251 9.61539 11.4699 9.61539 11.3415ZM6.6707 9.70544C6.66419 9.66066 6.70649 9.62185 6.76832 9.60991C6.83014 9.60393 6.88871 9.62782 6.89521 9.66663C6.90497 9.70544 6.86268 9.74425 6.7976 9.75619C6.73578 9.76814 6.67721 9.74425 6.6707 9.70544ZM6.37461 9.80098C6.30302 9.80695 6.25422 9.77411 6.25422 9.72933C6.25422 9.69051 6.30302 9.65767 6.3681 9.65767C6.42992 9.6517 6.48849 9.68454 6.48849 9.72933C6.48849 9.76814 6.43968 9.80098 6.37461 9.80098ZM5.90931 9.7353C5.84749 9.72335 5.80519 9.67857 5.81821 9.63976C5.83122 9.60095 5.8963 9.58304 5.95161 9.59498C6.01669 9.61289 6.05899 9.65767 6.04272 9.69648C6.0297 9.7353 5.96463 9.75321 5.90931 9.7353ZM5.50259 9.51735C5.45378 9.47854 5.44077 9.42182 5.4733 9.39495C5.50259 9.36211 5.56441 9.36808 5.61322 9.41286C5.65552 9.45167 5.67179 9.51138 5.6425 9.53527C5.61322 9.56811 5.55139 9.56214 5.50259 9.51735ZM5.22602 9.21881C5.19022 9.17402 5.19022 9.12327 5.22602 9.10237C5.26181 9.0755 5.31712 9.0964 5.34641 9.14118C5.3822 9.18597 5.3822 9.2397 5.34641 9.26359C5.31712 9.2815 5.26181 9.26359 5.22602 9.21881ZM5.02103 8.95608C4.98523 8.91727 4.97873 8.87249 5.00801 8.85159C5.0373 8.82472 5.0861 8.83965 5.12189 8.8695C5.15769 8.90831 5.16419 8.9531 5.13491 8.974C5.10563 9.00086 5.05682 8.98594 5.02103 8.95608ZM4.8258 8.76501C4.7835 8.7471 4.76398 8.71426 4.77699 8.68739C4.79001 8.66947 4.8258 8.66052 4.8681 8.67545C4.9104 8.69634 4.92992 8.72919 4.91691 8.75307C4.90389 8.77994 4.86159 8.78591 4.8258 8.76501Z" fill="#763A26"/>
</svg>
