<svg width="24" height="23" viewBox="0 0 24 23" fill="none" xmlns="http://www.w3.org/2000/svg">
<path d="M19.439 14.7958C20.3636 13.9162 21.0775 13.0421 21.544 12.4153C21.848 12.0068 22 11.8024 22 11.5001C22 11.1977 21.848 10.9934 21.544 10.5849C20.1779 8.74913 16.6892 4.79175 12 4.79175C11.0922 4.79175 10.2294 4.94006 9.41827 5.19259M6.74742 6.46636C4.73118 7.76948 3.24215 9.52846 2.45604 10.5849C2.15201 10.9934 2 11.1977 2 11.5001C2 11.8024 2.15201 12.0068 2.45604 12.4153C3.8221 14.2511 7.31078 18.2084 12 18.2084C13.9908 18.2084 15.7651 17.4951 17.2526 16.5338" stroke="#8E4026" stroke-width="1.5" stroke-linecap="round" stroke-linejoin="round"/>
<path d="M9.85786 9.58325C9.32783 10.0912 9 10.793 9 11.5681C9 13.1183 10.3113 14.3749 11.9289 14.3749C12.7377 14.3749 13.47 14.0608 14 13.5528" stroke="#8E4026" stroke-width="1.5" stroke-linecap="round"/>
<path d="M3 2.875L21 20.125" stroke="#8E4026" stroke-width="1.5" stroke-linecap="round" stroke-linejoin="round"/>
</svg>
