<svg width="16" height="14" viewBox="0 0 16 14" fill="none" xmlns="http://www.w3.org/2000/svg">
<path fill-rule="evenodd" clip-rule="evenodd" d="M4.11218 0.125C3.28388 0.125 2.48949 0.426834 1.90367 0.964133C1.31786 1.50143 0.988599 2.23021 0.988281 2.99021V10.6337C0.988281 11.3939 1.31741 12.1229 1.90325 12.6605C2.4891 13.198 3.28367 13.5 4.11218 13.5H12.4426C13.2709 13.4997 14.0652 13.1976 14.6507 12.6601C15.2363 12.1226 15.5653 11.3937 15.5653 10.6337V2.99021C15.565 2.2304 15.2359 1.50179 14.6503 0.964522C14.0648 0.427254 13.2707 0.125292 12.4426 0.125H4.11218ZM13.3411 2.99461C13.3411 3.21356 13.2463 3.42354 13.0776 3.57836C12.9089 3.73318 12.68 3.82016 12.4414 3.82016C12.2028 3.82016 11.9739 3.73318 11.8052 3.57836C11.6364 3.42354 11.5416 3.21356 11.5416 2.99461C11.5416 2.77566 11.6364 2.56568 11.8052 2.41086C11.9739 2.25604 12.2028 2.16906 12.4414 2.16906C12.68 2.16906 12.9089 2.25604 13.0776 2.41086C13.2463 2.56568 13.3411 2.77566 13.3411 2.99461ZM8.27858 4.52243C7.61679 4.52243 6.98211 4.76364 6.51415 5.19301C6.0462 5.62238 5.7833 6.20473 5.7833 6.81195C5.7833 7.41917 6.0462 8.00152 6.51415 8.43089C6.98211 8.86026 7.61679 9.10147 8.27858 9.10147C8.94037 9.10147 9.57506 8.86026 10.043 8.43089C10.511 8.00152 10.7739 7.41917 10.7739 6.81195C10.7739 6.20473 10.511 5.62238 10.043 5.19301C9.57506 4.76364 8.94037 4.52243 8.27858 4.52243ZM4.58245 6.81195C4.58245 5.9128 4.97173 5.05047 5.66467 4.41468C6.3576 3.77888 7.29743 3.42169 8.27738 3.42169C9.25734 3.42169 10.1972 3.77888 10.8901 4.41468C11.583 5.05047 11.9723 5.9128 11.9723 6.81195C11.9723 7.7111 11.583 8.57343 10.8901 9.20922C10.1972 9.84502 9.25734 10.2022 8.27738 10.2022C7.29743 10.2022 6.3576 9.84502 5.66467 9.20922C4.97173 8.57343 4.58245 7.7111 4.58245 6.81195Z" fill="#763A26"/>
</svg>
