<svg width="16" height="14" viewBox="0 0 16 14" fill="none" xmlns="http://www.w3.org/2000/svg">
<path d="M0.957031 1.08298C0.957031 0.553836 1.43625 0.125 2.02753 0.125H14.4635C15.0548 0.125 15.534 0.553836 15.534 1.08298V12.542C15.534 13.0712 15.0548 13.5 14.4635 13.5H2.02753C1.43625 13.5 0.957031 13.0712 0.957031 12.542V1.08298ZM5.46041 11.3215V5.2819H3.27295V11.3215H5.46041ZM4.36714 4.45683C5.1297 4.45683 5.60436 3.99372 5.60436 3.41358C5.5907 2.8209 5.13061 2.37033 4.38172 2.37033C3.63282 2.37033 3.14358 2.82173 3.14358 3.41358C3.14358 3.99372 3.61825 4.45683 4.35256 4.45683H4.36714ZM8.83864 11.3215V7.94854C8.83864 7.76798 8.85321 7.58741 8.91152 7.45868C9.06914 7.09839 9.42901 6.72473 10.034 6.72473C10.8257 6.72473 11.1418 7.27812 11.1418 8.09065V11.3215H13.3293V7.85742C13.3293 6.00164 12.2506 5.13895 10.8111 5.13895C9.65039 5.13895 9.13018 5.72411 8.83864 6.13623V6.15712H8.82406L8.83864 6.13623V5.2819H6.65209C6.67942 5.84866 6.65209 11.3215 6.65209 11.3215H8.83864Z" fill="#763A26"/>
</svg>
