<svg width="16" height="23" viewBox="0 0 16 23" fill="none" xmlns="http://www.w3.org/2000/svg">
<path d="M16 8.2C16 7.18882 15.7931 6.18754 15.391 5.25334C14.989 4.31913 14.3997 3.47029 13.6569 2.75528C12.914 2.04027 12.0321 1.47309 11.0615 1.08613C10.0909 0.699166 9.05058 0.5 8 0.5C6.94943 0.5 5.90914 0.699166 4.93853 1.08613C3.96793 1.47309 3.08601 2.04027 2.34315 2.75528C1.60028 3.47029 1.011 4.31913 0.608964 5.25334C0.206926 6.18754 -1.56548e-08 7.18882 0 8.2C0 9.7257 0.467429 11.1447 1.26286 12.3415H1.25371L8 22.5L14.7463 12.3415H14.7383C15.5622 11.1058 16.0001 9.6683 16 8.2ZM8 11.5C7.09069 11.5 6.21862 11.1523 5.57563 10.5335C4.93265 9.91458 4.57143 9.07521 4.57143 8.2C4.57143 7.32479 4.93265 6.48542 5.57563 5.86655C6.21862 5.24768 7.09069 4.9 8 4.9C8.90931 4.9 9.78139 5.24768 10.4244 5.86655C11.0673 6.48542 11.4286 7.32479 11.4286 8.2C11.4286 9.07521 11.0673 9.91458 10.4244 10.5335C9.78139 11.1523 8.90931 11.5 8 11.5Z" fill="#763A26"/>
</svg>
