<svg width="20" height="23" viewBox="0 0 20 23" fill="none" xmlns="http://www.w3.org/2000/svg">
<path fill-rule="evenodd" clip-rule="evenodd" d="M10.7279 21.5924L10.7169 21.5944L10.6459 21.6294L10.6259 21.6334L10.6119 21.6294L10.5409 21.5944C10.5303 21.5911 10.5223 21.5927 10.5169 21.5994L10.5129 21.6094L10.4959 22.0374L10.5009 22.0574L10.5109 22.0704L10.6149 22.1444L10.6299 22.1484L10.6419 22.1444L10.7459 22.0704L10.7579 22.0544L10.7619 22.0374L10.7449 21.6104C10.7423 21.5997 10.7366 21.5937 10.7279 21.5924ZM10.9929 21.4794L10.9799 21.4814L10.7949 21.5744L10.7849 21.5844L10.7819 21.5954L10.7999 22.0254L10.8049 22.0374L10.8129 22.0444L11.0139 22.1374C11.0266 22.1407 11.0363 22.1381 11.0429 22.1294L11.0469 22.1154L11.0129 21.5014C11.0096 21.4894 11.0029 21.4821 10.9929 21.4794ZM10.2779 21.4814C10.2735 21.4787 10.2683 21.4779 10.2632 21.479C10.2582 21.4801 10.2538 21.4831 10.2509 21.4874L10.2449 21.5014L10.2109 22.1154C10.2116 22.1274 10.2173 22.1354 10.2279 22.1394L10.2429 22.1374L10.4439 22.0444L10.4539 22.0364L10.4579 22.0254L10.4749 21.5954L10.4719 21.5834L10.4619 21.5734L10.2779 21.4814Z" fill="#763A26"/>
<path fill-rule="evenodd" clip-rule="evenodd" d="M14.6877 20.4674C13.2477 20.4144 9.16674 19.8504 4.89274 15.5774C0.619742 11.3034 0.056742 7.22344 0.002742 5.78244C-0.077258 3.58644 1.60474 1.45344 3.54774 0.620444C3.78172 0.519411 4.03794 0.480945 4.29127 0.50882C4.5446 0.536695 4.78633 0.629953 4.99274 0.779444C6.59274 1.94544 7.69674 3.70944 8.64474 5.09644C8.85333 5.40117 8.94251 5.77199 8.8953 6.13824C8.84809 6.50449 8.66778 6.84057 8.38874 7.08244L6.43774 8.53144C6.34348 8.59951 6.27713 8.69947 6.25102 8.81277C6.2249 8.92606 6.24079 9.04498 6.29574 9.14744C6.73774 9.95044 7.52374 11.1464 8.42374 12.0464C9.32374 12.9464 10.5767 13.7844 11.4357 14.2764C11.5434 14.3369 11.6702 14.3538 11.79 14.3237C11.9098 14.2935 12.0135 14.2187 12.0797 14.1144L13.3497 12.1814C13.5832 11.8713 13.9277 11.6635 14.3109 11.6016C14.6942 11.5397 15.0865 11.6285 15.4057 11.8494C16.8127 12.8234 18.4547 13.9084 19.6567 15.4474C19.8184 15.6553 19.9212 15.9029 19.9544 16.1641C19.9877 16.4253 19.9501 16.6907 19.8457 16.9324C19.0087 18.8854 16.8907 20.5484 14.6877 20.4674Z" fill="#763A26"/>
</svg>
