<svg width="26" height="40" viewBox="0 0 26 40" fill="none" xmlns="http://www.w3.org/2000/svg">
<path d="M18.1981 25.5035C17.212 23.6514 16.2259 21.799 15.2398 19.9469C15.048 19.5863 14.8445 19.2315 14.6369 18.8786C14.6872 18.8572 14.7342 18.8226 14.7728 18.7692C16.9727 15.7244 19.0218 12.5594 21.2704 9.55242C22.8174 7.48412 24.7298 5.17854 25.3611 2.62096C25.5416 1.88904 25.4687 0.990904 24.6806 0.664059C23.2741 0.0806618 22.014 1.16168 21.2062 2.20258C20.6689 2.89459 20.2455 3.66861 19.8218 4.43271C19.1179 5.70057 18.3311 6.92674 17.5962 8.17752C16.0478 10.8119 14.4245 13.3717 12.7376 15.9176C12.2541 15.2039 11.7664 14.4942 11.293 13.7814C9.49618 11.077 7.92272 8.24127 6.2454 5.46308C5.35502 3.98811 4.59569 2.07212 3.136 1.05365C2.37588 0.523671 0.962468 0.149367 0.282963 1.03638C-0.282562 1.77446 0.122909 2.86858 0.434266 3.62255C0.975963 4.9341 1.77064 6.14159 2.56789 7.30918C5.2595 11.2506 8.04226 15.1451 10.8544 19.0075C7.25314 25.6852 3.65208 32.3631 0.0516221 39.0412C-0.143969 39.4036 0.359407 39.6796 0.592925 39.3575C2.72894 36.4131 4.87687 33.4777 6.82185 30.402C8.71601 27.4066 10.6133 24.4189 12.7323 21.5762C14.7648 24.3117 16.6125 27.1753 18.4217 30.0615C20.4264 33.2596 22.6498 36.3041 24.8649 39.3575C25.0986 39.6796 25.5996 39.4044 25.4062 39.0412C23.0033 34.5285 20.6008 30.016 18.1981 25.5035ZM13.129 16.4624C15.8492 12.3679 18.3836 8.17713 20.8323 3.91504C21.4739 2.79868 22.9084 0.424584 24.5283 1.28459C25.3148 1.70238 24.4745 3.34733 24.2372 3.84951C23.2344 5.97103 21.7523 7.8634 20.3557 9.73511C18.264 12.5379 16.3599 15.4968 14.3139 18.3367C13.929 17.7097 13.5252 17.0923 13.1149 16.4793C13.1195 16.4736 13.1244 16.4688 13.129 16.4624ZM6.27996 30.0857C5.19755 31.8057 4.04605 33.4792 2.86913 35.1353C5.66717 29.9465 8.46501 24.7581 11.2629 19.5693C11.6233 20.0635 11.9825 20.5593 12.3437 21.0526C10.1626 23.9561 8.21303 27.0142 6.27996 30.0857ZM19.1768 30.0857C17.1772 26.9237 15.1749 23.7686 12.9177 20.7809C10.9771 18.1316 9.05853 15.465 7.18304 12.7692C5.54167 10.41 3.76825 8.10167 2.23946 5.669C1.554 4.57786 0.592929 3.16425 0.638798 1.81755C0.659449 1.21211 1.26727 1.13507 1.749 1.1444C3.01111 1.16962 3.92849 2.76234 4.49302 3.69244C5.99381 6.16423 7.40307 8.6944 8.88658 11.1771C10.5268 13.9223 12.4318 16.4994 14.0962 19.2301C16.0931 22.5073 17.7604 26.015 19.5627 29.4004C20.6059 31.3603 21.6496 33.3198 22.6931 35.2797C21.4814 33.5757 20.2952 31.8543 19.1768 30.0857Z" fill="#763A26"/>
<path d="M2.58013 2.6831C2.53506 2.66046 2.49137 2.6545 2.45126 2.66026C2.37005 2.66443 2.2924 2.7107 2.26361 2.81197C1.88097 4.15688 3.22767 6.17255 4.39963 6.75714C4.54538 6.82982 4.72012 6.74165 4.72389 6.57088C4.74097 5.77244 4.264 4.96525 3.8754 4.29925C3.57417 3.78317 3.14446 2.96626 2.58013 2.6831ZM2.62918 3.24306C2.99653 3.57725 3.2777 4.14357 3.50288 4.51688C3.7918 4.99524 4.1385 5.57307 4.25348 6.15468C3.43438 5.53514 2.58132 4.23511 2.62918 3.24306Z" fill="#763A26"/>
<path d="M21.175 6.50437C22.2014 5.99226 23.3811 4.22658 23.0457 3.04867C23.0207 2.9601 22.9526 2.9196 22.8817 2.91583C22.8463 2.91086 22.808 2.91602 22.7687 2.93568C22.2691 3.18687 21.9075 3.89914 21.6345 4.35148C21.2878 4.92535 20.8761 5.64874 20.891 6.34155C20.894 6.49088 21.0475 6.56811 21.175 6.50437ZM21.9603 4.54211C22.1505 4.21566 22.4037 3.71884 22.7256 3.42675C22.7677 4.29529 22.0203 5.43388 21.3029 5.97677C21.4047 5.46704 21.7117 4.96824 21.9603 4.54211Z" fill="#763A26"/>
</svg>
