<svg width="25" height="25" viewBox="0 0 25 25" fill="none" xmlns="http://www.w3.org/2000/svg">
<path d="M22.035 10.6714H21.2295V10.6299H12.2295V14.6299H17.881C17.0565 16.9584 14.841 18.6299 12.2295 18.6299C8.91599 18.6299 6.22949 15.9434 6.22949 12.6299C6.22949 9.31638 8.91599 6.62988 12.2295 6.62988C13.759 6.62988 15.1505 7.20688 16.21 8.14938L19.0385 5.32088C17.2525 3.65638 14.8635 2.62988 12.2295 2.62988C6.70699 2.62988 2.22949 7.10738 2.22949 12.6299C2.22949 18.1524 6.70699 22.6299 12.2295 22.6299C17.752 22.6299 22.2295 18.1524 22.2295 12.6299C22.2295 11.9594 22.1605 11.3049 22.035 10.6714Z" fill="#FFC107"/>
<path d="M3.38232 7.97538L6.66782 10.3849C7.55682 8.18388 9.70982 6.62988 12.2293 6.62988C13.7588 6.62988 15.1503 7.20688 16.2098 8.14938L19.0383 5.32088C17.2523 3.65638 14.8633 2.62988 12.2293 2.62988C8.38832 2.62988 5.05732 4.79838 3.38232 7.97538Z" fill="#FF3D00"/>
<path d="M12.2296 22.63C14.8126 22.63 17.1596 21.6415 18.9341 20.034L15.8391 17.415C14.8016 18.2045 13.5334 18.6314 12.2296 18.63C9.62865 18.63 7.42015 16.9715 6.58815 14.657L3.32715 17.1695C4.98215 20.408 8.34315 22.63 12.2296 22.63Z" fill="#4CAF50"/>
<path d="M22.035 10.6714H21.2295V10.6299H12.2295V14.6299H17.881C17.4866 15.7381 16.7762 16.7065 15.8375 17.4154L15.839 17.4144L18.934 20.0334C18.715 20.2324 22.2295 17.6299 22.2295 12.6299C22.2295 11.9594 22.1605 11.3049 22.035 10.6714Z" fill="#1976D2"/>
</svg>
