<svg width="26" height="40" viewBox="0 0 26 40" fill="none" xmlns="http://www.w3.org/2000/svg">
<path d="M18.4276 25.8737C17.4415 24.0217 16.4554 22.1692 15.4693 20.3172C15.2775 19.9566 15.0739 19.6017 14.8664 19.2489C14.9167 19.2274 14.9637 19.1929 15.0023 19.1395C17.2022 16.0946 19.2513 12.9296 21.4999 9.92266C23.0469 7.85436 24.9593 5.54878 25.5906 2.9912C25.7711 2.25927 25.6982 1.36114 24.9101 1.0343C23.5036 0.450901 22.2435 1.53192 21.4357 2.57282C20.8984 3.26483 20.475 4.03885 20.0513 4.80295C19.3474 6.07081 18.5606 7.29697 17.8257 8.54776C16.2773 11.1822 14.654 13.7419 12.9671 16.2878C12.4836 15.5741 11.9959 14.8645 11.5225 14.1516C9.72567 11.4473 8.15221 8.61151 6.4749 5.83332C5.58451 4.35835 4.82518 2.44235 3.3655 1.42389C2.60537 0.893911 1.19196 0.519606 0.512455 1.40662C-0.0530703 2.1447 0.352401 3.23882 0.663758 3.99279C1.20546 5.30434 2.00013 6.51183 2.79739 7.67942C5.48899 11.6208 8.27175 15.5154 11.0839 19.3777C7.48263 26.0554 3.88157 32.7333 0.281114 39.4114C0.0855234 39.7738 0.5889 40.0498 0.822417 39.7277C2.95843 36.7833 5.10636 33.8479 7.05135 30.7723C8.9455 27.7768 10.8428 24.7892 12.9618 21.9464C14.9943 24.6819 16.842 27.5455 18.6512 30.4317C20.6559 33.6299 22.8793 36.6743 25.0944 39.7277C25.3281 40.0498 25.8291 39.7746 25.6357 39.4114C23.2328 34.8987 20.8303 30.3862 18.4276 25.8737ZM13.3585 16.8327C16.0787 12.7382 18.6131 8.54737 21.0618 4.28528C21.7034 3.16892 23.1378 0.794823 24.7578 1.65483C25.5443 2.07262 24.704 3.71757 24.4667 4.21975C23.4639 6.34127 21.9818 8.23364 20.5852 10.1054C18.4935 12.9082 16.5894 15.867 14.5434 18.707C14.1585 18.0799 13.7546 17.4625 13.3444 16.8496C13.349 16.8438 13.3539 16.839 13.3585 16.8327ZM6.50945 30.4559C5.42705 32.1759 4.27554 33.8495 3.09862 35.5055C5.89666 30.3167 8.6945 25.1283 11.4923 19.9395C11.8528 20.4337 12.212 20.9296 12.5732 21.4228C10.3921 24.3263 8.44252 27.3845 6.50945 30.4559ZM19.4063 30.4559C17.4067 27.2939 15.4044 24.1388 13.1472 21.1512C11.2066 18.5019 9.28802 15.8353 7.41254 13.1395C5.77116 10.7803 3.99774 8.47191 2.46895 6.03924C1.78349 4.9481 0.822421 3.53449 0.86829 2.18779C0.888942 1.58235 1.49676 1.50531 1.97849 1.51464C3.2406 1.53986 4.15798 3.13258 4.72252 4.06268C6.2233 6.53447 7.63256 9.06464 9.11607 11.5474C10.7563 14.2926 12.6613 16.8696 14.3257 19.6003C16.3225 22.8775 17.9899 26.3853 19.7921 29.7707C20.8354 31.7305 21.8791 33.69 22.9226 35.6499C21.7109 33.946 20.5247 32.2246 19.4063 30.4559Z" fill="#763A26"/>
</svg>
