<svg width="101" height="19" viewBox="0 0 101 19" fill="none" xmlns="http://www.w3.org/2000/svg">
<path d="M8.5 0.5L10.2961 6.71885H16.1085L11.4062 10.5623L13.2023 16.7812L8.5 12.9377L3.79772 16.7812L5.59383 10.5623L0.891548 6.71885H6.70389L8.5 0.5Z" fill="#FFBB00"/>
<path d="M29.5 0.5L31.2961 6.71885H37.1085L32.4062 10.5623L34.2023 16.7812L29.5 12.9377L24.7977 16.7812L26.5938 10.5623L21.8915 6.71885H27.7039L29.5 0.5Z" fill="#FFBB00"/>
<path d="M50.5 0.5L52.2961 6.71885H58.1085L53.4062 10.5623L55.2023 16.7812L50.5 12.9377L45.7977 16.7812L47.5938 10.5623L42.8915 6.71885H48.7039L50.5 0.5Z" fill="#FFBB00"/>
<path d="M71.5 0.5L73.2961 6.71885H79.1085L74.4062 10.5623L76.2023 16.7812L71.5 12.9377L66.7977 16.7812L68.5938 10.5623L63.8915 6.71885H69.7039L71.5 0.5Z" fill="#FFBB00"/>
<path d="M92.5 0.5L94.2961 6.71885H100.108L95.4062 10.5623L97.2023 16.7812L92.5 12.9377L87.7977 16.7812L89.5938 10.5623L84.8915 6.71885H90.7039L92.5 0.5Z" fill="#DFDFDF"/>
</svg>
