<svg width="24" height="23" viewBox="0 0 24 23" fill="none" xmlns="http://www.w3.org/2000/svg">
<path d="M18.9 18.4C17.6235 18.4 16.6 19.4235 16.6 20.7C16.6 21.31 16.8423 21.895 17.2737 22.3263C17.705 22.7577 18.29 23 18.9 23C19.51 23 20.095 22.7577 20.5263 22.3263C20.9577 21.895 21.2 21.31 21.2 20.7C21.2 20.09 20.9577 19.505 20.5263 19.0737C20.095 18.6423 19.51 18.4 18.9 18.4ZM0.5 0V2.3H2.8L6.94 11.0285L5.376 13.846C5.2035 14.168 5.1 14.5475 5.1 14.95C5.1 15.56 5.34232 16.145 5.77365 16.5763C6.20499 17.0077 6.79 17.25 7.4 17.25H21.2V14.95H7.883C7.80675 14.95 7.73362 14.9197 7.67971 14.8658C7.62579 14.8119 7.5955 14.7387 7.5955 14.6625C7.5955 14.605 7.607 14.559 7.63 14.5245L8.665 12.65H17.2325C18.095 12.65 18.854 12.167 19.245 11.4655L23.362 4.025C23.4425 3.841 23.5 3.6455 23.5 3.45C23.5 3.145 23.3788 2.85249 23.1632 2.63683C22.9475 2.42116 22.655 2.3 22.35 2.3H5.3415L4.2605 0M7.4 18.4C6.1235 18.4 5.1 19.4235 5.1 20.7C5.1 21.31 5.34232 21.895 5.77365 22.3263C6.20499 22.7577 6.79 23 7.4 23C8.01 23 8.59501 22.7577 9.02635 22.3263C9.45768 21.895 9.7 21.31 9.7 20.7C9.7 20.09 9.45768 19.505 9.02635 19.0737C8.59501 18.6423 8.01 18.4 7.4 18.4Z" fill="#763A26"/>
</svg>
