<svg width="42" height="39" viewBox="0 0 42 39" fill="none" xmlns="http://www.w3.org/2000/svg">
<rect x="0.5" width="41" height="39" rx="19.5" fill="#FDF6F3"/>
<path d="M20.4775 29.4809C20.2592 29.4809 20.0429 29.4412 19.8284 29.3617C19.6139 29.2829 19.4252 29.1618 19.2625 28.9983L17.971 27.8339C15.9685 26.0152 14.2022 24.2463 12.6722 22.5273C11.1407 20.8091 10.375 19.0229 10.375 17.1689C10.375 15.7379 10.861 14.5364 11.833 13.5644C12.805 12.5924 14.0065 12.1064 15.4375 12.1064C16.258 12.1064 17.1126 12.3138 18.0014 12.7286C18.8901 13.1433 19.723 13.9256 20.5 15.0753C21.2778 13.9256 22.1106 13.1433 22.9986 12.7286C23.8866 12.3138 24.7413 12.1064 25.5625 12.1064C26.9935 12.1064 28.195 12.5924 29.167 13.5644C30.139 14.5364 30.625 15.7379 30.625 17.1689C30.625 19.0657 29.8281 20.8889 28.2344 22.6387C26.6406 24.3884 24.8961 26.1217 23.0009 27.8384L21.7161 28.9983C21.5526 29.1618 21.3602 29.2829 21.139 29.3617C20.9177 29.4404 20.6976 29.4802 20.4786 29.4809M19.9499 16.2431C19.2764 15.1571 18.5763 14.3834 17.8495 13.9222C17.1227 13.4617 16.3187 13.2314 15.4375 13.2314C14.3125 13.2314 13.375 13.6064 12.625 14.3564C11.875 15.1064 11.5 16.0439 11.5 17.1689C11.5 17.9999 11.7351 18.8519 12.2054 19.7249C12.6756 20.5987 13.3071 21.4934 14.0999 22.4092C14.8919 23.3242 15.8027 24.2609 16.8325 25.2194C17.8607 26.1772 18.9317 27.1631 20.0455 28.1771C20.1753 28.2926 20.3267 28.3503 20.5 28.3503C20.6733 28.3503 20.8247 28.2926 20.9545 28.1771C22.0683 27.1631 23.1396 26.1768 24.1686 25.2183C25.1976 24.2613 26.1085 23.3249 26.9013 22.4092C27.6933 21.4927 28.3244 20.5979 28.7946 19.7249C29.2649 18.8519 29.5 17.9999 29.5 17.1689C29.5 16.0439 29.125 15.1064 28.375 14.3564C27.625 13.6064 26.6875 13.2314 25.5625 13.2314C24.6812 13.2314 23.8772 13.4621 23.1505 13.9233C22.423 14.3838 21.7229 15.1571 21.0501 16.2431C20.9901 16.3443 20.9099 16.4201 20.8094 16.4703C20.7089 16.5206 20.6058 16.5457 20.5 16.5457C20.3942 16.5457 20.2911 16.5206 20.1906 16.4703C20.0901 16.4201 20.0103 16.3443 19.951 16.2431" fill="#763A26"/>
</svg>
