<svg width="42" height="39" viewBox="0 0 42 39" fill="none" xmlns="http://www.w3.org/2000/svg">
<rect x="0.5" width="41" height="39" rx="19.5" fill="#FDF6F3"/>
<path d="M21.475 30.8675C21.2325 30.8675 20.9921 30.8233 20.7537 30.735C20.5154 30.6475 20.3058 30.5129 20.125 30.3313L18.69 29.0375C16.465 27.0167 14.5025 25.0513 12.8025 23.1413C11.1008 21.2321 10.25 19.2475 10.25 17.1875C10.25 15.5975 10.79 14.2625 11.87 13.1825C12.95 12.1025 14.285 11.5625 15.875 11.5625C16.7867 11.5625 17.7363 11.7929 18.7238 12.2537C19.7113 12.7146 20.6367 13.5838 21.5 14.8612C22.3642 13.5838 23.2896 12.7146 24.2762 12.2537C25.2629 11.7929 26.2125 11.5625 27.125 11.5625C28.715 11.5625 30.05 12.1025 31.13 13.1825C32.21 14.2625 32.75 15.5975 32.75 17.1875C32.75 19.295 31.8646 21.3208 30.0938 23.265C28.3229 25.2092 26.3846 27.135 24.2787 29.0425L22.8513 30.3313C22.6696 30.5129 22.4558 30.6475 22.21 30.735C21.9642 30.8225 21.7196 30.8667 21.4762 30.8675" fill="#763A26"/>
</svg>
