<svg width="10" height="12" viewBox="0 0 10 12" fill="none" xmlns="http://www.w3.org/2000/svg">
<path d="M0.541677 10.2102L0.541677 1.79019C0.541196 1.45778 0.634863 1.13203 0.811836 0.850638C0.98881 0.56925 1.24185 0.343733 1.54168 0.200191C1.89742 0.0321586 2.29321 -0.0325605 2.68395 0.0134084C3.07468 0.0593773 3.44465 0.214185 3.75168 0.460191L8.85168 4.67019C9.04231 4.83541 9.19519 5.03967 9.29997 5.26914C9.40476 5.49861 9.45898 5.74793 9.45898 6.00019C9.45898 6.25245 9.40476 6.50177 9.29997 6.73124C9.19519 6.96071 9.04231 7.16497 8.85168 7.33019L3.75168 11.5402C3.44465 11.7862 3.07468 11.941 2.68395 11.987C2.29321 12.0329 1.89742 11.9682 1.54168 11.8002C1.24185 11.6566 0.98881 11.4311 0.811836 11.1497C0.634863 10.8684 0.541196 10.5426 0.541677 10.2102Z" fill="#FDF6F3"/>
</svg>
